<?xml version="1.0" encoding="UTF-8"?>
<!DOCTYPE svg PUBLIC "-//W3C//DTD SVG 1.1//EN" "http://www.w3.org/Graphics/SVG/1.1/DTD/svg11.dtd">
<!-- Creator: CorelDRAW X8 -->
<svg xmlns="http://www.w3.org/2000/svg" xml:space="preserve" width="371px" height="100px" version="1.1" style="shape-rendering:geometricPrecision; text-rendering:geometricPrecision; image-rendering:optimizeQuality; fill-rule:evenodd; clip-rule:evenodd"
viewBox="0 0 386 104"
 xmlns:xlink="http://www.w3.org/1999/xlink">
 <defs>
  <style type="text/css">
   <![CDATA[
    .fil0 {fill:white}
    .fil1 {fill:#2B2A29;fill-rule:nonzero}
   ]]>
  </style>
 </defs>
 <g id="Слой_x0020_1">
  <metadata id="CorelCorpID_0Corel-Layer"/>
  <rect class="fil0" width="386" height="104"/>
  <g id="_834297584">
   <path class="fil1" d="M53 11c-2,0 -4,0 -5,1 0,1 -1,2 -1,4l0 17c0,4 -1,7 -2,10 -2,2 -5,4 -8,5 -2,1 -5,2 -9,2 -5,0 -10,-2 -13,-5 -3,-3 -5,-7 -5,-11l0 -19c0,-2 0,-4 -2,-4 -1,0 -2,0 -3,0l0 -2 16 0 0 2 -1 0c-1,0 -3,0 -3,1 -1,0 -2,1 -2,3l0 18c0,4 2,8 4,10 3,2 6,3 11,3 9,0 14,-4 14,-13l0 -15c0,-4 0,-6 -2,-7 -1,0 -2,0 -4,0l0 -2 15 0 0 2z"/>
   <path class="fil1" d="M84 25c-3,0 -4,2 -5,4l-9 20 -2 0 -9 -21c-1,-2 -2,-3 -3,-3l-2 0 0 -1 13 0 0 1c-2,0 -3,0 -4,1 0,0 0,1 0,2l7 16 7 -14c0,-2 0,-3 0,-4 -1,-1 -2,-1 -4,-1l0 -1 11 0 0 1z"/>
   <path class="fil1" d="M110 33l-19 0c0,1 0,2 0,2 0,5 2,8 5,10 1,1 3,1 5,1 3,0 5,-1 8,-4l0 1c-3,4 -7,6 -11,6 -4,0 -7,-2 -10,-6 -1,-2 -1,-4 -1,-6 0,-6 2,-9 6,-12 2,-1 4,-2 6,-2 4,0 6,1 8,3 0,1 1,3 3,5l0 2zm-6 -2l0 0c0,-3 -1,-5 -3,-6 -1,-1 -2,-1 -3,-1 -3,0 -5,2 -7,7l13 0z"/>
   <path class="fil1" d="M126 49l-14 0 0 -1c2,0 3,-1 4,-1 1,-1 1,-2 1,-4l0 -30c0,-1 0,-2 0,-2 0,0 -1,-1 -2,-1l-3 0 0 -1 9 -3 1 0 0 38c0,2 1,4 3,4l1 0 0 1z"/>
   <path class="fil1" d="M138 11c0,1 -1,1 -1,2 -1,0 -1,0 -2,0 -1,0 -1,0 -2,0 -1,-1 -1,-1 -1,-2 0,-1 0,-1 1,-2 1,0 1,-1 2,-1 1,0 1,1 2,1 0,1 1,1 1,2zm4 38l0 0 -14 0 0 -1c2,0 3,-1 4,-1 1,-1 1,-2 1,-4l0 -13c0,-1 0,-2 0,-3 -1,0 -1,0 -2,0l-3 0 0 -2 9 -2 0 0 0 21c0,2 2,4 5,4l0 1z"/>
   <path class="fil1" d="M165 25l-2 4c-1,0 -2,-1 -3,-1 -1,-1 -2,-1 -2,-1 -1,0 -2,1 -3,2 -1,1 -1,2 -2,3l0 12c0,1 1,2 1,3 1,0 2,1 4,1l2 0 0 1 -15 0 0 -1c2,-1 3,-1 3,-2 1,0 1,-2 1,-3l0 -15 -4 -1 0 -1 7 -3 1 0 1 7c1,-2 1,-3 1,-3 1,-2 2,-3 3,-3 0,0 1,-1 2,-1 0,0 1,1 2,1l3 1z"/>
   <path class="fil1" d="M221 49l-16 0 0 -1c4,0 6,-2 5,-5l-1 -28 -1 0 -15 34 -2 0 -16 -34 -2 28c0,3 2,4 5,5l0 1 -13 0 0 -1c3,0 5,-1 5,-3 0,-1 1,-2 1,-4l1 -25c0,-3 0,-4 -1,-5 0,0 -1,0 -3,0l0 -2 10 0 15 32 15 -32 10 0 0 2 -2 0c-1,0 -2,0 -2,0 0,1 -1,1 -1,2l2 29c1,1 1,2 1,2 0,2 0,2 1,3 0,0 2,1 4,1l0 1z"/>
   <path class="fil1" d="M252 36c0,4 -1,7 -3,10 -3,2 -6,3 -10,3 -5,0 -9,-2 -12,-6 -1,-2 -2,-4 -2,-7 0,-4 2,-7 4,-10 3,-2 6,-3 10,-3 4,0 7,1 9,4 3,2 4,5 4,9zm-4 2l0 0c0,-4 -1,-7 -3,-10 -2,-2 -4,-4 -7,-4 -2,0 -4,1 -6,3 -1,2 -2,5 -2,7 0,6 2,9 5,12 1,1 3,2 5,2 3,0 5,-2 6,-5 1,-1 2,-3 2,-5z"/>
   <path class="fil1" d="M272 42c0,2 0,4 -2,5 -2,2 -3,2 -6,2 -1,0 -1,0 -2,0 -1,0 -2,0 -2,0 0,0 -1,0 -1,0l-1 0 -1 -7 1 0c1,2 1,3 2,4 1,2 3,2 4,2 2,0 3,0 4,-2 1,0 1,-1 1,-2 0,-1 -1,-2 -2,-4 -1,-1 -2,-2 -5,-3 -1,-1 -3,-2 -4,-3 0,-1 -1,-2 -1,-4 0,-2 1,-4 3,-5 1,-1 3,-2 5,-2 2,0 4,0 5,1l1 6 -2 0c0,-2 -1,-4 -2,-5 -1,0 -2,-1 -3,-1 -1,0 -2,1 -2,1 -1,1 -1,2 -1,3 0,1 0,3 2,4 0,0 1,1 3,2 2,1 4,3 4,3 2,2 2,3 2,5z"/>
   <path class="fil1" d="M299 43c-3,4 -6,6 -11,6 -5,0 -8,-2 -10,-6 0,-2 -1,-4 -1,-6 0,-5 3,-9 8,-12 2,-1 4,-2 7,-2 3,0 5,1 6,2 1,0 1,1 1,2 0,1 -1,1 -2,1 -1,0 -2,0 -3,-1 -2,-2 -3,-2 -4,-2 -3,0 -6,2 -7,5 -1,2 -2,4 -2,6 0,4 2,7 5,9 1,1 3,2 4,2 3,0 6,-2 8,-5l1 1z"/>
   <path class="fil1" d="M331 36c0,4 -1,7 -3,10 -3,2 -6,3 -10,3 -5,0 -9,-2 -12,-6 -1,-2 -2,-4 -2,-7 0,-4 2,-7 4,-10 3,-2 6,-3 10,-3 4,0 7,1 10,4 2,2 3,5 3,9zm-4 2l0 0c0,-4 -1,-7 -3,-10 -2,-2 -4,-4 -7,-4 -2,0 -4,1 -6,3 -1,2 -2,5 -2,7 0,6 2,9 5,12 1,1 3,2 5,2 3,0 5,-2 6,-5 1,-1 2,-3 2,-5z"/>
   <path class="fil1" d="M381 25c-2,0 -3,1 -4,2 -1,0 -1,1 -1,2l-9 20 -1 0 -8 -18 -7 18 -2 0 -10 -21c0,-2 -2,-3 -4,-3l0 -1 12 0 0 1c-2,0 -3,1 -3,2 0,0 0,1 0,2l7 15 6 -14c-1,-3 -2,-5 -4,-5l-2 0 0 -1 13 0 0 1c-1,0 -2,0 -3,1 0,0 0,1 1,3l6 15 6 -15c1,-1 1,-3 0,-3 -1,-1 -2,-1 -4,-1l0 -1 11 0 0 1z"/>
   <path class="fil1" d="M131 69c-1,0 -2,0 -2,0 -1,1 -1,1 -1,2l0 15c0,5 -1,8 -4,10 -1,1 -2,2 -3,2 -1,0 -2,0 -2,-1 -1,0 -2,-1 -2,-1 0,-1 0,-1 1,-1 0,0 0,-1 1,-1 0,0 1,1 1,1 1,1 2,1 2,1 2,0 3,-2 3,-5l0 -19c0,-2 0,-3 -1,-3 0,0 -1,0 -2,0l0 0 0 -1 9 0 0 1z"/>
   <path class="fil1" d="M146 81l-10 0c-1,1 -1,1 -1,1 0,3 1,4 3,6 1,0 2,0 3,0 1,0 3,0 4,-2l0 0c-1,3 -3,4 -6,4 -2,0 -4,-1 -5,-3 0,-2 -1,-3 -1,-4 0,-3 1,-5 3,-6 1,-1 3,-2 4,-2 2,0 3,1 4,2 0,1 1,2 2,3l0 1zm-3 -1l0 0c0,-2 -1,-3 -2,-3 -1,-1 -1,-1 -2,-1 -1,0 -3,1 -3,4l7 0z"/>
   <path class="fil1" d="M172 77c-1,0 -1,0 -2,1 0,0 0,0 -1,1l-4 11 -1 0 -4 -10 -4 10 -1 0 -5 -12c-1,-1 -2,-1 -3,-1l0 -1 7 0 0 1c-1,0 -2,0 -2,0 0,1 0,1 0,2l4 8 3 -8c0,-1 -1,-2 -2,-2l-1 0 0 -1 7 0 0 1c-1,0 -1,0 -1,0 -1,0 -1,1 0,2l3 8 3 -8c1,-1 1,-2 1,-2 -1,0 -1,0 -3,0l0 -1 6 0 0 1z"/>
   <path class="fil1" d="M186 81l-10 0c0,1 0,1 0,1 0,3 1,4 3,6 1,0 2,0 3,0 1,0 3,0 4,-2l0 0c-2,3 -4,4 -6,4 -2,0 -4,-1 -5,-3 -1,-2 -1,-3 -1,-4 0,-3 1,-5 3,-6 1,-1 2,-2 4,-2 2,0 3,1 4,2 0,1 1,2 1,3l0 1zm-2 -1l0 0c-1,-2 -1,-3 -2,-3 -1,-1 -1,-1 -2,-1 -2,0 -3,1 -4,4l8 0z"/>
   <path class="fil1" d="M196 90l-8 0 0 -1c1,0 1,0 2,0 0,-1 1,-1 1,-2l0 -17c0,-1 0,-1 0,-1 -1,0 -1,0 -1,0l-2 -1 0 0 4 -2 1 0 0 21c0,1 1,2 2,2l1 0 0 1z"/>
   <path class="fil1" d="M204 90l-8 0 0 -1c1,0 2,0 2,0 1,-1 1,-1 1,-2l0 -17c0,-1 0,-1 0,-1 0,0 -1,0 -1,0l-2 -1 0 0 5 -2 0 0 0 21c0,1 1,2 2,2l1 0 0 1z"/>
   <path class="fil1" d="M218 81l-10 0c0,1 0,1 0,1 0,3 1,4 3,6 1,0 1,0 2,0 2,0 3,0 5,-2l0 0c-2,3 -4,4 -6,4 -2,0 -4,-1 -5,-3 -1,-2 -1,-3 -1,-4 0,-3 1,-5 3,-6 1,-1 2,-2 4,-2 2,0 3,1 4,2 0,1 1,2 1,3l0 1zm-3 -1l0 0c0,-2 0,-3 -1,-3 -1,-1 -1,-1 -2,-1 -2,0 -3,1 -4,4l7 0z"/>
   <path class="fil1" d="M231 77l-1 2c0,0 -1,-1 -1,-1 -1,0 -1,0 -2,0 0,0 0,0 -1,1 0,0 -1,1 -1,1l0 7c0,1 0,1 1,2 0,0 0,0 1,0l2 0 0 1 -9 0 0 -1c1,0 2,0 2,-1 0,0 1,-1 1,-2l0 -8 -3 0 0 -1 4 -1 1 0 0 3c1,-1 1,-1 1,-1 1,-1 1,-2 1,-2 1,0 1,0 1,0 1,0 1,0 2,0l1 1z"/>
   <path class="fil1" d="M249 77c-1,0 -2,0 -2,1 0,0 -1,1 -1,1l-6 15c-1,2 -2,4 -3,4 0,0 -1,0 -1,-1 0,0 0,0 0,-1 0,0 0,0 0,0 0,-1 1,-1 1,-1 1,0 1,0 2,0 0,-1 0,-2 1,-2l1 -3 -6 -11c0,-1 0,-2 -1,-2 0,0 -1,0 -1,0l0 -1 7 0 0 1c-1,0 -2,0 -2,0 0,0 0,1 0,2l4 8 3 -7c0,-1 0,-2 0,-2 0,0 0,-1 0,-1 0,0 -1,0 -2,0l0 -1 6 0 0 1z"/>
  </g>
 </g>
</svg>
